<?xml version="1.0" encoding="UTF-8" standalone="no"?><svg xmlns="http://www.w3.org/2000/svg" xmlns:xlink="http://www.w3.org/1999/xlink" contentStyleType="text/css" height="594px" preserveAspectRatio="none" style="width:778px;height:594px;background:#FFFFFF;" version="1.1" viewBox="0 0 778 594" width="778px" zoomAndPan="magnify"><defs/><g><rect fill="#FFFFFF" height="383.0371" style="stroke:#181818;stroke-width:1.0;" width="10" x="86" y="112.7988"/><rect fill="#FFFFFF" height="29.3105" style="stroke:#181818;stroke-width:1.0;" width="10" x="185" y="142.1094"/><rect fill="#FFFFFF" height="29.3105" style="stroke:#181818;stroke-width:1.0;" width="10" x="293" y="200.7305"/><rect fill="#FFFFFF" height="177.8633" style="stroke:#181818;stroke-width:1.0;" width="10" x="420.5" y="259.3516"/><rect fill="#FFFFFF" height="29.3105" style="stroke:#181818;stroke-width:1.0;" width="10" x="570.5" y="466.5254"/><rect fill="#FFFFFF" height="97.9316" style="stroke:#181818;stroke-width:1.0;" width="10" x="704" y="317.9727"/><rect height="75.9316" style="stroke:#000000;stroke-width:1.5;fill:none;" width="730" x="42" y="332.9727"/><line style="stroke:#181818;stroke-width:0.5;fill:none;stroke-dasharray:5.0,5.0;" x1="23" x2="23" y1="81.4883" y2="513.8359"/><line style="stroke:#181818;stroke-width:0.5;fill:none;stroke-dasharray:5.0,5.0;" x1="91" x2="91" y1="81.4883" y2="513.8359"/><line style="stroke:#181818;stroke-width:0.5;fill:none;stroke-dasharray:5.0,5.0;" x1="190" x2="190" y1="81.4883" y2="513.8359"/><line style="stroke:#181818;stroke-width:0.5;fill:none;stroke-dasharray:5.0,5.0;" x1="298" x2="298" y1="81.4883" y2="513.8359"/><line style="stroke:#181818;stroke-width:0.5;fill:none;stroke-dasharray:5.0,5.0;" x1="425" x2="425" y1="81.4883" y2="513.8359"/><line style="stroke:#181818;stroke-width:0.5;fill:none;stroke-dasharray:5.0,5.0;" x1="575" x2="575" y1="81.4883" y2="513.8359"/><line style="stroke:#181818;stroke-width:0.5;fill:none;stroke-dasharray:5.0,5.0;" x1="709" x2="709" y1="81.4883" y2="513.8359"/><text fill="#000000" font-family="sans-serif" font-size="14" lengthAdjust="spacing" textLength="31" x="5" y="78.5352">User</text><ellipse cx="23.5" cy="13.5" fill="#E2E2F0" rx="8" ry="8" style="stroke:#181818;stroke-width:0.5;"/><path d="M23.5,21.5 L23.5,48.5 M10.5,29.5 L36.5,29.5 M23.5,48.5 L10.5,63.5 M23.5,48.5 L36.5,63.5 " fill="none" style="stroke:#181818;stroke-width:0.5;"/><text fill="#000000" font-family="sans-serif" font-size="14" lengthAdjust="spacing" textLength="31" x="5" y="526.3711">User</text><ellipse cx="23.5" cy="537.8242" fill="#E2E2F0" rx="8" ry="8" style="stroke:#181818;stroke-width:0.5;"/><path d="M23.5,545.8242 L23.5,572.8242 M10.5,553.8242 L36.5,553.8242 M23.5,572.8242 L10.5,587.8242 M23.5,572.8242 L36.5,587.8242 " fill="none" style="stroke:#181818;stroke-width:0.5;"/><text fill="#000000" font-family="sans-serif" font-size="14" lengthAdjust="spacing" textLength="72" x="52" y="78.5352">Jest (main)</text><path d="M70.5,37 L70.5,61 M70.5,49 L87.5,49 " fill="none" style="stroke:#181818;stroke-width:0.5;"/><ellipse cx="99.5" cy="49" fill="#E2E2F0" rx="12" ry="12" style="stroke:#181818;stroke-width:0.5;"/><text fill="#000000" font-family="sans-serif" font-size="14" lengthAdjust="spacing" textLength="72" x="52" y="526.3711">Jest (main)</text><path d="M70.5,533.3242 L70.5,557.3242 M70.5,545.3242 L87.5,545.3242 " fill="none" style="stroke:#181818;stroke-width:0.5;"/><ellipse cx="99.5" cy="545.3242" fill="#E2E2F0" rx="12" ry="12" style="stroke:#181818;stroke-width:0.5;"/><rect fill="#E2E2F0" height="30.4883" rx="2.5" ry="2.5" style="stroke:#181818;stroke-width:0.5;" width="100" x="140" y="50"/><text fill="#000000" font-family="sans-serif" font-size="14" lengthAdjust="spacing" textLength="86" x="147" y="70.5352">jest.config.js</text><rect fill="#E2E2F0" height="30.4883" rx="2.5" ry="2.5" style="stroke:#181818;stroke-width:0.5;" width="100" x="140" y="512.8359"/><text fill="#000000" font-family="sans-serif" font-size="14" lengthAdjust="spacing" textLength="86" x="147" y="533.3711">jest.config.js</text><rect fill="#E2E2F0" height="30.4883" rx="2.5" ry="2.5" style="stroke:#181818;stroke-width:0.5;" width="96" x="250" y="50"/><text fill="#000000" font-family="sans-serif" font-size="14" lengthAdjust="spacing" textLength="82" x="257" y="70.5352">globalSetup</text><rect fill="#E2E2F0" height="30.4883" rx="2.5" ry="2.5" style="stroke:#181818;stroke-width:0.5;" width="96" x="250" y="512.8359"/><text fill="#000000" font-family="sans-serif" font-size="14" lengthAdjust="spacing" textLength="82" x="257" y="533.3711">globalSetup</text><rect fill="#E2E2F0" height="30.4883" rx="2.5" ry="2.5" style="stroke:#181818;stroke-width:0.5;" width="139" x="356" y="50"/><text fill="#000000" font-family="sans-serif" font-size="14" lengthAdjust="spacing" textLength="125" x="363" y="70.5352">customReporter.js</text><rect fill="#E2E2F0" height="30.4883" rx="2.5" ry="2.5" style="stroke:#181818;stroke-width:0.5;" width="139" x="356" y="512.8359"/><text fill="#000000" font-family="sans-serif" font-size="14" lengthAdjust="spacing" textLength="125" x="363" y="533.3711">customReporter.js</text><rect fill="#E2E2F0" height="30.4883" rx="2.5" ry="2.5" style="stroke:#181818;stroke-width:0.5;" width="141" x="505" y="50"/><text fill="#000000" font-family="sans-serif" font-size="14" lengthAdjust="spacing" textLength="127" x="512" y="70.5352">globalTeardown.js</text><rect fill="#E2E2F0" height="30.4883" rx="2.5" ry="2.5" style="stroke:#181818;stroke-width:0.5;" width="141" x="505" y="512.8359"/><text fill="#000000" font-family="sans-serif" font-size="14" lengthAdjust="spacing" textLength="127" x="512" y="533.3711">globalTeardown.js</text><text fill="#000000" font-family="sans-serif" font-size="14" lengthAdjust="spacing" textLength="100" x="656" y="78.5352">Jest (worker N)</text><path d="M688.5,37 L688.5,61 M688.5,49 L705.5,49 " fill="none" style="stroke:#181818;stroke-width:0.5;"/><ellipse cx="717.5" cy="49" fill="#E2E2F0" rx="12" ry="12" style="stroke:#181818;stroke-width:0.5;"/><text fill="#000000" font-family="sans-serif" font-size="14" lengthAdjust="spacing" textLength="100" x="656" y="526.3711">Jest (worker N)</text><path d="M688.5,533.3242 L688.5,557.3242 M688.5,545.3242 L705.5,545.3242 " fill="none" style="stroke:#181818;stroke-width:0.5;"/><ellipse cx="717.5" cy="545.3242" fill="#E2E2F0" rx="12" ry="12" style="stroke:#181818;stroke-width:0.5;"/><rect fill="#FFFFFF" height="383.0371" style="stroke:#181818;stroke-width:1.0;" width="10" x="86" y="112.7988"/><rect fill="#FFFFFF" height="29.3105" style="stroke:#181818;stroke-width:1.0;" width="10" x="185" y="142.1094"/><rect fill="#FFFFFF" height="29.3105" style="stroke:#181818;stroke-width:1.0;" width="10" x="293" y="200.7305"/><rect fill="#FFFFFF" height="177.8633" style="stroke:#181818;stroke-width:1.0;" width="10" x="420.5" y="259.3516"/><rect fill="#FFFFFF" height="29.3105" style="stroke:#181818;stroke-width:1.0;" width="10" x="570.5" y="466.5254"/><rect fill="#FFFFFF" height="97.9316" style="stroke:#181818;stroke-width:1.0;" width="10" x="704" y="317.9727"/><polygon fill="#181818" points="74,108.7988,84,112.7988,74,116.7988,78,112.7988" style="stroke:#181818;stroke-width:1.0;"/><line style="stroke:#181818;stroke-width:1.0;" x1="23.5" x2="80" y1="112.7988" y2="112.7988"/><text fill="#000000" font-family="sans-serif" font-size="13" lengthAdjust="spacing" textLength="39" x="30.5" y="108.0566">jest ...</text><polygon fill="#181818" points="173,138.1094,183,142.1094,173,146.1094,177,142.1094" style="stroke:#181818;stroke-width:1.0;"/><line style="stroke:#181818;stroke-width:1.0;" x1="96" x2="179" y1="142.1094" y2="142.1094"/><text fill="#000000" font-family="sans-serif" font-size="13" lengthAdjust="spacing" textLength="42" x="103" y="137.3672">import</text><polygon fill="#181818" points="107,167.4199,97,171.4199,107,175.4199,103,171.4199" style="stroke:#181818;stroke-width:1.0;"/><line style="stroke:#181818;stroke-width:1.0;" x1="101" x2="189" y1="171.4199" y2="171.4199"/><text fill="#000000" font-family="sans-serif" font-size="13" lengthAdjust="spacing" textLength="33" x="113" y="166.6777">await</text><polygon fill="#181818" points="281,196.7305,291,200.7305,281,204.7305,285,200.7305" style="stroke:#181818;stroke-width:1.0;"/><line style="stroke:#181818;stroke-width:1.0;" x1="96" x2="287" y1="200.7305" y2="200.7305"/><text fill="#000000" font-family="sans-serif" font-size="13" lengthAdjust="spacing" textLength="42" x="103" y="195.9883">import</text><polygon fill="#181818" points="107,226.041,97,230.041,107,234.041,103,230.041" style="stroke:#181818;stroke-width:1.0;"/><line style="stroke:#181818;stroke-width:1.0;" x1="101" x2="297" y1="230.041" y2="230.041"/><text fill="#000000" font-family="sans-serif" font-size="13" lengthAdjust="spacing" textLength="33" x="113" y="225.2988">await</text><polygon fill="#181818" points="408.5,255.3516,418.5,259.3516,408.5,263.3516,412.5,259.3516" style="stroke:#181818;stroke-width:1.0;"/><line style="stroke:#181818;stroke-width:1.0;" x1="96" x2="414.5" y1="259.3516" y2="259.3516"/><text fill="#000000" font-family="sans-serif" font-size="13" lengthAdjust="spacing" textLength="42" x="103" y="254.6094">import</text><polygon fill="#181818" points="408.5,284.6621,418.5,288.6621,408.5,292.6621,412.5,288.6621" style="stroke:#181818;stroke-width:1.0;"/><line style="stroke:#181818;stroke-width:1.0;" x1="96" x2="414.5" y1="288.6621" y2="288.6621"/><text fill="#000000" font-family="sans-serif" font-size="13" lengthAdjust="spacing" textLength="77" x="103" y="283.9199">onRunStart()</text><polygon fill="#181818" points="692,313.9727,702,317.9727,692,321.9727,696,317.9727" style="stroke:#181818;stroke-width:1.0;"/><line style="stroke:#181818;stroke-width:1.0;" x1="96" x2="698" y1="317.9727" y2="317.9727"/><text fill="#000000" font-family="sans-serif" font-size="13" lengthAdjust="spacing" textLength="48" x="103" y="313.2305">spawn()</text><path d="M42,332.9727 L116,332.9727 L116,340.2832 L106,350.2832 L42,350.2832 L42,332.9727 " fill="#EEEEEE" style="stroke:#000000;stroke-width:1.5;"/><rect fill="none" height="75.9316" style="stroke:#000000;stroke-width:1.5;" width="730" x="42" y="332.9727"/><text fill="#000000" font-family="sans-serif" font-size="13" font-weight="bold" lengthAdjust="spacing" textLength="29" x="57" y="346.541">loop</text><text fill="#000000" font-family="sans-serif" font-size="11" font-weight="bold" lengthAdjust="spacing" textLength="85" x="131" y="345.6074">[every test file]</text><polygon fill="#181818" points="692,367.5938,702,371.5938,692,375.5938,696,371.5938" style="stroke:#181818;stroke-width:1.0;"/><line style="stroke:#181818;stroke-width:1.0;" x1="96" x2="698" y1="371.5938" y2="371.5938"/><text fill="#000000" font-family="sans-serif" font-size="13" lengthAdjust="spacing" textLength="63" x="103" y="366.8516">runTests()</text><polygon fill="#181818" points="441.5,396.9043,431.5,400.9043,441.5,404.9043,437.5,400.9043" style="stroke:#181818;stroke-width:1.0;"/><line style="stroke:#181818;stroke-width:1.0;" x1="435.5" x2="703" y1="400.9043" y2="400.9043"/><text fill="#000000" font-family="sans-serif" font-size="13" lengthAdjust="spacing" textLength="112" x="447.5" y="396.1621">onTestFileResult()</text><polygon fill="#181818" points="413.5,433.2148,423.5,437.2148,413.5,441.2148,417.5,437.2148" style="stroke:#181818;stroke-width:1.0;"/><line style="stroke:#181818;stroke-width:1.0;" x1="96" x2="419.5" y1="437.2148" y2="437.2148"/><text fill="#000000" font-family="sans-serif" font-size="13" lengthAdjust="spacing" textLength="108" x="103" y="432.4727">onRunComplete()</text><polygon fill="#181818" points="558.5,462.5254,568.5,466.5254,558.5,470.5254,562.5,466.5254" style="stroke:#181818;stroke-width:1.0;"/><line style="stroke:#181818;stroke-width:1.0;" x1="96" x2="564.5" y1="466.5254" y2="466.5254"/><text fill="#000000" font-family="sans-serif" font-size="13" lengthAdjust="spacing" textLength="42" x="103" y="461.7832">import</text><polygon fill="#181818" points="102,491.8359,92,495.8359,102,499.8359,98,495.8359" style="stroke:#181818;stroke-width:1.0;"/><line style="stroke:#181818;stroke-width:1.0;" x1="96" x2="574.5" y1="495.8359" y2="495.8359"/><text fill="#000000" font-family="sans-serif" font-size="13" lengthAdjust="spacing" textLength="33" x="108" y="491.0938">await</text><!--MD5=[5281924e75d1acc365479b0da8bfbefe]
@startuml

actor User
boundary "Jest (main)" as Jest0
participant "jest.config.js" as jestConfig
participant "globalSetup" as globalSetup
participant "customReporter.js" as jestReporter
participant "globalTeardown.js" as globalTeardown
boundary "Jest (worker N)" as JestN

User -> Jest0 : jest ...
activate Jest0
Jest0 -> jestConfig: import
activate jestConfig
jestConfig -> Jest0: await
deactivate jestConfig
Jest0 -> globalSetup: import
activate globalSetup
globalSetup -> Jest0: await
deactivate globalSetup
Jest0 -> jestReporter: import
activate jestReporter
Jest0 -> jestReporter: onRunStart()
Jest0 -> JestN: spawn()
activate JestN
loop every test file
  Jest0 -> JestN: runTests()
  JestN -> jestReporter: onTestFileResult()
end loop
deactivate JestN
Jest0 -> jestReporter: onRunComplete()
deactivate jestReporter
Jest0 -> globalTeardown: import
activate globalTeardown
globalTeardown -> Jest0: await
deactivate globalTeardown

deactivate Jest0

@enduml

PlantUML version 1.2022.6(Tue Jun 21 20:34:49 EEST 2022)
(GPL source distribution)
Java Runtime: OpenJDK Runtime Environment
JVM: OpenJDK 64-Bit Server VM
Default Encoding: UTF-8
Language: en
Country: UA
--></g></svg>